<!DOCTYPE svg PUBLIC "-//W3C//DTD SVG 1.1//EN" "http://www.w3.org/Graphics/SVG/1.1/DTD/svg11.dtd">

<!-- Uploaded to: SVG Repo, www.svgrepo.com, Transformed by: SVG Repo Mixer Tools -->
<svg version="1.1" id="Uploaded to svgrepo.com" xmlns="http://www.w3.org/2000/svg" xmlns:xlink="http://www.w3.org/1999/xlink" width="10px" height="10px" viewBox="0 0 32 32" xml:space="preserve" fill="#ffffff">

<g id="SVGRepo_bgCarrier" stroke-width="0"/>

<g id="SVGRepo_tracerCarrier" stroke-linecap="round" stroke-linejoin="round"/>

<g id="SVGRepo_iconCarrier"> <style type="text/css"> .sharpcorners_een{fill:#ffffff;} .st0{fill:#ffffff;} </style> <path class="sharpcorners_een" d="M28,22V12h-4.5L17,7.667V3h-2v4.667L8.5,12H4v10H0v7h10v-7H6v-8h2.5l6.5,4.333V22h-4v7h10v-7h-4 v-3.667L23.5,14H26v8h-4v7h10v-7H28z M7,27H3v-1h4V27z M7,24v1H3v-1H7z M18,27h-4v-1h4V27z M18,25h-4v-1h4V25z M18,15h-4v-1h4V15z M18,13h-4v-1h4V13z M29,27h-4v-1h4V27z M29,25h-4v-1h4V25z"/> </g>

</svg>